<svg width="36" height="19" viewBox="0 0 36 19" fill="none" xmlns="http://www.w3.org/2000/svg">
<rect width="36" height="19" rx="7" fill="#E13B3F"/>
<path d="M20.244 7.426C20.244 7.92067 20.1507 8.42933 19.964 8.952C19.7867 9.46533 19.5487 9.98333 19.25 10.506C18.9607 11.0287 18.634 11.542 18.27 12.046C17.906 12.5407 17.542 13.012 17.178 13.46L16.492 14.062V14.118L17.388 13.964H20.44V15H14.868V14.594C15.0733 14.3793 15.3207 14.1133 15.61 13.796C15.8993 13.4787 16.198 13.1287 16.506 12.746C16.8233 12.354 17.1313 11.9433 17.43 11.514C17.738 11.0753 18.0133 10.632 18.256 10.184C18.508 9.736 18.7087 9.29267 18.858 8.854C19.0073 8.41533 19.082 8 19.082 7.608C19.082 7.15067 18.9513 6.77267 18.69 6.474C18.4287 6.166 18.032 6.012 17.5 6.012C17.1453 6.012 16.8 6.08667 16.464 6.236C16.128 6.376 15.8387 6.53933 15.596 6.726L15.134 5.928C15.4607 5.648 15.848 5.42867 16.296 5.27C16.744 5.11133 17.2247 5.032 17.738 5.032C18.1393 5.032 18.494 5.09267 18.802 5.214C19.11 5.326 19.3713 5.48933 19.586 5.704C19.8007 5.91867 19.964 6.17533 20.076 6.474C20.188 6.76333 20.244 7.08067 20.244 7.426Z" fill="white"/>
</svg>
