<svg width="23" height="23" viewBox="0 0 23 23" fill="none" xmlns="http://www.w3.org/2000/svg">
<path d="M20.7713 21.4917C20.588 21.4917 20.4048 21.4218 20.2649 21.2818L11.8273 12.8426C11.5475 12.5627 11.5475 12.1094 11.8273 11.8295C12.1071 11.5497 12.5603 11.5497 12.8401 11.8295L21.2777 20.2688C21.5575 20.5487 21.5575 21.002 21.2777 21.2818C21.1378 21.4218 20.9546 21.4917 20.7713 21.4917Z" fill="#A8D1E7"/>
<path d="M8.11454 14.7972C6.40366 14.7972 4.69207 14.1456 3.38967 12.8426C0.784172 10.2365 0.784172 5.99662 3.38967 3.3906C4.6515 2.12817 6.32951 1.43277 8.11454 1.43277C9.90027 1.43277 11.5783 2.12817 12.8401 3.3906C15.4456 5.99662 15.4456 10.2365 12.8401 12.8426C11.5377 14.1456 9.82613 14.7972 8.11454 14.7972ZM8.11454 2.86555C6.71282 2.86555 5.39433 3.41159 4.40249 4.40363C2.35587 6.45101 2.35587 9.78216 4.40249 11.8295C6.44982 13.8773 9.78136 13.8759 11.8273 11.8295C13.8739 9.78216 13.8739 6.45101 11.8273 4.40363C10.8355 3.41159 9.51697 2.86555 8.11454 2.86555Z" fill="#A8D1E7"/>
</svg>
